<svg version="1.1" xmlns="http://www.w3.org/2000/svg" xmlns:xlink="http://www.w3.org/1999/xlink" width="856.853515625" height="352"><defs/><g><text fill="#eeeeee" stroke="none" font-family="Arial" font-size="24px" font-style="normal" font-weight="normal" text-decoration="none" x="0" y="0"> </text><text fill="#eeeeee" stroke="none" font-family="Arial" font-size="24px" font-style="normal" font-weight="normal" text-decoration="none" x="0" y="30"> </text><text fill="#eeeeee" stroke="none" font-family="Arial" font-size="24px" font-style="normal" font-weight="normal" text-decoration="none" x="0" y="60"> </text><text fill="#eeeeee" stroke="none" font-family="Arial" font-size="24px" font-style="normal" font-weight="normal" text-decoration="none" x="0" y="90"> </text><text fill="#eeeeee" stroke="none" font-family="Arial" font-size="24px" font-style="normal" font-weight="normal" text-decoration="none" x="0" y="120"> </text><text fill="#eeeeee" stroke="none" font-family="Arial" font-size="24px" font-style="normal" font-weight="normal" text-decoration="none" x="0" y="150"> </text><text fill="#eeeeee" stroke="none" font-family="Arial" font-size="24px" font-style="normal" font-weight="normal" text-decoration="none" x="0" y="180"> </text><text fill="#eeeeee" stroke="none" font-family="Arial" font-size="24px" font-style="normal" font-weight="normal" text-decoration="none" x="0" y="210"> </text><text fill="#eeeeee" stroke="none" font-family="Arial" font-size="24px" font-style="normal" font-weight="normal" text-decoration="none" x="0" y="240"> </text><text fill="#eeeeee" stroke="none" font-family="Arial" font-size="24px" font-style="normal" font-weight="normal" text-decoration="none" x="0" y="270"> </text><text fill="#eeeeee" stroke="none" font-family="Arial" font-size="24px" font-style="normal" font-weight="normal" text-decoration="none" x="0" y="300"> </text><text fill="#eeeeee" stroke="none" font-family="Arial" font-size="24px" font-style="normal" font-weight="normal" text-decoration="none" x="0" y="330"> </text><text fill="#eeeeee" stroke="none" font-family="Arial" font-size="24px" font-style="normal" font-weight="normal" text-decoration="none" x="200" y="0"> </text><text fill="#eeeeee" stroke="none" font-family="Arial" font-size="24px" font-style="normal" font-weight="normal" text-decoration="none" x="200" y="30"> </text><text fill="#eeeeee" stroke="none" font-family="Arial" font-size="24px" font-style="normal" font-weight="normal" text-decoration="none" x="200" y="60"> </text><text fill="#eeeeee" stroke="none" font-family="Arial" font-size="24px" font-style="normal" font-weight="normal" text-decoration="none" x="200" y="90"> </text><text fill="#eeeeee" stroke="none" font-family="Arial" font-size="24px" font-style="normal" font-weight="normal" text-decoration="none" x="200" y="120"> </text><text fill="#eeeeee" stroke="none" font-family="Arial" font-size="24px" font-style="normal" font-weight="normal" text-decoration="none" x="200" y="150"> </text><text fill="#eeeeee" stroke="none" font-family="Arial" font-size="24px" font-style="normal" font-weight="normal" text-decoration="none" x="200" y="180"> </text><text fill="#eeeeee" stroke="none" font-family="Arial" font-size="24px" font-style="normal" font-weight="normal" text-decoration="none" x="200" y="210"> </text><text fill="#eeeeee" stroke="none" font-family="Arial" font-size="24px" font-style="normal" font-weight="normal" text-decoration="none" x="200" y="240"> </text><text fill="#eeeeee" stroke="none" font-family="Arial" font-size="24px" font-style="normal" font-weight="normal" text-decoration="none" x="200" y="270"> </text><text fill="#eeeeee" stroke="none" font-family="Arial" font-size="24px" font-style="normal" font-weight="normal" text-decoration="none" x="200" y="300"> </text><text fill="#eeeeee" stroke="none" font-family="Arial" font-size="24px" font-style="normal" font-weight="normal" text-decoration="none" x="200" y="330"> </text><text fill="#eeeeee" stroke="none" font-family="Arial" font-size="24px" font-style="normal" font-weight="normal" text-decoration="none" x="400" y="0"> </text><text fill="#eeeeee" stroke="none" font-family="Arial" font-size="24px" font-style="normal" font-weight="normal" text-decoration="none" x="400" y="30"> </text><text fill="#eeeeee" stroke="none" font-family="Arial" font-size="24px" font-style="normal" font-weight="normal" text-decoration="none" x="400" y="60"> </text><text fill="#eeeeee" stroke="none" font-family="Arial" font-size="24px" font-style="normal" font-weight="normal" text-decoration="none" x="400" y="90"> </text><text fill="#eeeeee" stroke="none" font-family="Arial" font-size="24px" font-style="normal" font-weight="normal" text-decoration="none" x="400" y="120"> </text><text fill="#eeeeee" stroke="none" font-family="Arial" font-size="24px" font-style="normal" font-weight="normal" text-decoration="none" x="400" y="150"> </text><text fill="#eeeeee" stroke="none" font-family="Arial" font-size="24px" font-style="normal" font-weight="normal" text-decoration="none" x="400" y="180"> </text><text fill="#eeeeee" stroke="none" font-family="Arial" font-size="24px" font-style="normal" font-weight="normal" text-decoration="none" x="400" y="210"> </text><text fill="#eeeeee" stroke="none" font-family="Arial" font-size="24px" font-style="normal" font-weight="normal" text-decoration="none" x="400" y="240"> </text><text fill="#eeeeee" stroke="none" font-family="Arial" font-size="24px" font-style="normal" font-weight="normal" text-decoration="none" x="400" y="270"> </text><text fill="#eeeeee" stroke="none" font-family="Arial" font-size="24px" font-style="normal" font-weight="normal" text-decoration="none" x="400" y="300"> </text><text fill="#eeeeee" stroke="none" font-family="Arial" font-size="24px" font-style="normal" font-weight="normal" text-decoration="none" x="400" y="330"> </text><text fill="#eeeeee" stroke="none" font-family="Arial" font-size="24px" font-style="normal" font-weight="normal" text-decoration="none" x="600" y="0"> </text><text fill="#eeeeee" stroke="none" font-family="Arial" font-size="24px" font-style="normal" font-weight="normal" text-decoration="none" x="600" y="30"> </text><text fill="#eeeeee" stroke="none" font-family="Arial" font-size="24px" font-style="normal" font-weight="normal" text-decoration="none" x="600" y="60"> </text><text fill="#eeeeee" stroke="none" font-family="Arial" font-size="24px" font-style="normal" font-weight="normal" text-decoration="none" x="600" y="90"> </text><text fill="#eeeeee" stroke="none" font-family="Arial" font-size="24px" font-style="normal" font-weight="normal" text-decoration="none" x="600" y="120"> </text><text fill="#eeeeee" stroke="none" font-family="Arial" font-size="24px" font-style="normal" font-weight="normal" text-decoration="none" x="600" y="150"> </text><text fill="#eeeeee" stroke="none" font-family="Arial" font-size="24px" font-style="normal" font-weight="normal" text-decoration="none" x="600" y="180"> </text><text fill="#eeeeee" stroke="none" font-family="Arial" font-size="24px" font-style="normal" font-weight="normal" text-decoration="none" x="600" y="210"> </text><text fill="#eeeeee" stroke="none" font-family="Arial" font-size="24px" font-style="normal" font-weight="normal" text-decoration="none" x="600" y="240"> </text><text fill="#eeeeee" stroke="none" font-family="Arial" font-size="24px" font-style="normal" font-weight="normal" text-decoration="none" x="600" y="270"> </text><text fill="#eeeeee" stroke="none" font-family="Arial" font-size="24px" font-style="normal" font-weight="normal" text-decoration="none" x="600" y="300"> </text><text fill="#eeeeee" stroke="none" font-family="Arial" font-size="24px" font-style="normal" font-weight="normal" text-decoration="none" x="600" y="330"> </text><text fill="#eeeeee" stroke="none" font-family="Arial" font-size="24px" font-style="normal" font-weight="normal" text-decoration="none" x="800" y="0"> </text><text fill="#eeeeee" stroke="none" font-family="Arial" font-size="24px" font-style="normal" font-weight="normal" text-decoration="none" x="800" y="30"> </text><text fill="#eeeeee" stroke="none" font-family="Arial" font-size="24px" font-style="normal" font-weight="normal" text-decoration="none" x="800" y="60"> </text><text fill="#eeeeee" stroke="none" font-family="Arial" font-size="24px" font-style="normal" font-weight="normal" text-decoration="none" x="800" y="90"> </text><text fill="#eeeeee" stroke="none" font-family="Arial" font-size="24px" font-style="normal" font-weight="normal" text-decoration="none" x="800" y="120"> </text><text fill="#eeeeee" stroke="none" font-family="Arial" font-size="24px" font-style="normal" font-weight="normal" text-decoration="none" x="800" y="150"> </text><text fill="#eeeeee" stroke="none" font-family="Arial" font-size="24px" font-style="normal" font-weight="normal" text-decoration="none" x="800" y="180"> </text><text fill="#eeeeee" stroke="none" font-family="Arial" font-size="24px" font-style="normal" font-weight="normal" text-decoration="none" x="800" y="210"> </text><text fill="#eeeeee" stroke="none" font-family="Arial" font-size="24px" font-style="normal" font-weight="normal" text-decoration="none" x="800" y="240"> </text><text fill="#eeeeee" stroke="none" font-family="Arial" font-size="24px" font-style="normal" font-weight="normal" text-decoration="none" x="800" y="270"> </text><text fill="#eeeeee" stroke="none" font-family="Arial" font-size="24px" font-style="normal" font-weight="normal" text-decoration="none" x="800" y="300"> </text><text fill="#eeeeee" stroke="none" font-family="Arial" font-size="24px" font-style="normal" font-weight="normal" text-decoration="none" x="800" y="330"> </text><g transform="translate(-254,-110) scale(1,1)"><rect fill="#C0C0C0" stroke="none" x="271" y="159" width="169.037109375" height="85" opacity="0.2"/></g><g transform="translate(-254,-110) scale(1,1)"><rect fill="#ffffff" stroke="none" x="264" y="152" width="169.037109375" height="85"/></g><g transform="translate(-254,-110) scale(1,1)"><path fill="none" stroke="#000000" d="M 264 152 L 433.037109375 152 L 433.037109375 237 L 264 237 L 264 152 Z Z" stroke-miterlimit="10"/></g><g transform="translate(-254,-110) scale(1,1)"><path fill="none" stroke="#000000" d="M 264 177 L 433.037109375 177" stroke-miterlimit="10"/></g><g transform="translate(-254,-110) scale(1,1)"><path fill="none" stroke="#000000" d="M 264 200 L 433.037109375 200" stroke-miterlimit="10"/></g><g transform="translate(-254,-110) scale(1,1)"><g><path fill="none" stroke="none"/><text fill="#000000" stroke="none" font-family="Arial" font-size="13px" font-style="normal" font-weight="bold" text-decoration="none" x="316.726318359375" y="171.5">CardModel</text></g></g><g transform="translate(-254,-110) scale(1,1)"><g><path fill="none" stroke="none"/><text fill="#000000" stroke="none" font-family="Arial" font-size="13px" font-style="normal" font-weight="normal" text-decoration="none" x="269" y="194.5">+items: ListViewItem[*]</text></g></g><g transform="translate(-254,-110) scale(1,1)"><g><path fill="none" stroke="none"/><text fill="#000000" stroke="none" font-family="Arial" font-size="13px" font-style="normal" font-weight="normal" text-decoration="none" x="269" y="217.5">+save(): MementoCard</text></g></g><g transform="translate(-254,-110) scale(1,1)"><g><path fill="none" stroke="none"/><text fill="#000000" stroke="none" font-family="Arial" font-size="13px" font-style="normal" font-weight="normal" text-decoration="none" x="269" y="232.5">+undo(MementoCard mem)</text></g></g><g transform="translate(-254,-110) scale(1,1)"><rect fill="#C0C0C0" stroke="none" x="279" y="383" width="140.6123046875" height="57" opacity="0.2"/></g><g transform="translate(-254,-110) scale(1,1)"><rect fill="#ffffff" stroke="none" x="272" y="376" width="140.6123046875" height="57"/></g><g transform="translate(-254,-110) scale(1,1)"><path fill="none" stroke="#000000" d="M 272 376 L 412.6123046875 376 L 412.6123046875 433 L 272 433 L 272 376 Z Z" stroke-miterlimit="10"/></g><g transform="translate(-254,-110) scale(1,1)"><path fill="none" stroke="#000000" d="M 272 401 L 412.6123046875 401" stroke-miterlimit="10"/></g><g transform="translate(-254,-110) scale(1,1)"><path fill="none" stroke="#000000" d="M 272 424 L 412.6123046875 424" stroke-miterlimit="10"/></g><g transform="translate(-254,-110) scale(1,1)"><g><path fill="none" stroke="none"/><text fill="#000000" stroke="none" font-family="Arial" font-size="13px" font-style="normal" font-weight="bold" text-decoration="none" x="301.12255859375" y="395.5">MementoCard</text></g></g><g transform="translate(-254,-110) scale(1,1)"><g><path fill="none" stroke="none"/><text fill="#000000" stroke="none" font-family="Arial" font-size="13px" font-style="normal" font-weight="normal" text-decoration="none" x="277" y="418.5">+items: ListViewItem[*]</text></g></g><g transform="translate(-254,-110) scale(1,1)"><rect fill="#C0C0C0" stroke="none" x="687" y="359" width="280.2861328125" height="100" opacity="0.2"/></g><g transform="translate(-254,-110) scale(1,1)"><rect fill="#ffffff" stroke="none" x="680" y="352" width="280.2861328125" height="100"/></g><g transform="translate(-254,-110) scale(1,1)"><path fill="none" stroke="#000000" d="M 680 352 L 960.2861328125 352 L 960.2861328125 452 L 680 452 L 680 352 Z Z" stroke-miterlimit="10"/></g><g transform="translate(-254,-110) scale(1,1)"><path fill="none" stroke="#000000" d="M 680 377 L 960.2861328125 377" stroke-miterlimit="10"/></g><g transform="translate(-254,-110) scale(1,1)"><path fill="none" stroke="#000000" d="M 680 400 L 960.2861328125 400" stroke-miterlimit="10"/></g><g transform="translate(-254,-110) scale(1,1)"><g><path fill="none" stroke="none"/><text fill="#000000" stroke="none" font-family="Arial" font-size="13px" font-style="normal" font-weight="bold" text-decoration="none" x="776.0712890625" y="371.5">CardCareTaker</text></g></g><g transform="translate(-254,-110) scale(1,1)"><g><path fill="none" stroke="none"/><text fill="#000000" stroke="none" font-family="Arial" font-size="13px" font-style="normal" font-weight="normal" text-decoration="none" x="685" y="394.5">+saveCardStorage: MementoCard[*]</text></g></g><g transform="translate(-254,-110) scale(1,1)"><g><path fill="none" stroke="none"/><text fill="#000000" stroke="none" font-family="Arial" font-size="13px" font-style="normal" font-weight="normal" text-decoration="none" x="685" y="417.5">+saveMememtoCard(MementoCard item): void</text></g></g><g transform="translate(-254,-110) scale(1,1)"><g><path fill="none" stroke="none"/><text fill="#000000" stroke="none" font-family="Arial" font-size="13px" font-style="normal" font-weight="normal" text-decoration="none" x="685" y="432.5">+popOutMememtoCard(): MementoCard</text></g></g><g transform="translate(-254,-110) scale(1,1)"><g><path fill="none" stroke="none"/><text fill="#000000" stroke="none" font-family="Arial" font-size="13px" font-style="normal" font-weight="normal" text-decoration="none" x="685" y="447.5">+clearAllMementoCard(): void</text></g></g><g transform="translate(-254,-110) scale(1,1)"><rect fill="#C0C0C0" stroke="none" x="551" y="127" width="556.853515625" height="160" opacity="0.2"/></g><g transform="translate(-254,-110) scale(1,1)"><rect fill="#ffffff" stroke="none" x="544" y="120" width="556.853515625" height="160"/></g><g transform="translate(-254,-110) scale(1,1)"><path fill="none" stroke="#000000" d="M 544 120 L 1100.853515625 120 L 1100.853515625 280 L 544 280 L 544 120 Z Z" stroke-miterlimit="10"/></g><g transform="translate(-254,-110) scale(1,1)"><path fill="none" stroke="#000000" d="M 544 145 L 1100.853515625 145" stroke-miterlimit="10"/></g><g transform="translate(-254,-110) scale(1,1)"><path fill="none" stroke="#000000" d="M 544 183 L 1100.853515625 183" stroke-miterlimit="10"/></g><g transform="translate(-254,-110) scale(1,1)"><g><path fill="none" stroke="none"/><text fill="#000000" stroke="none" font-family="Arial" font-size="13px" font-style="normal" font-weight="bold" text-decoration="none" x="774.36865234375" y="139.5">BanHangControl</text></g></g><g transform="translate(-254,-110) scale(1,1)"><g><path fill="none" stroke="none"/><text fill="#000000" stroke="none" font-family="Arial" font-size="13px" font-style="normal" font-weight="normal" text-decoration="none" x="549" y="162.5">+cardCareTaker: CardCareTaker</text></g></g><g transform="translate(-254,-110) scale(1,1)"><g><path fill="none" stroke="none"/><text fill="#000000" stroke="none" font-family="Arial" font-size="13px" font-style="normal" font-weight="normal" text-decoration="none" x="549" y="177.5">+cardModel: CardModel</text></g></g><g transform="translate(-254,-110) scale(1,1)"><g><path fill="none" stroke="none"/><text fill="#000000" stroke="none" font-family="Arial" font-size="13px" font-style="normal" font-weight="normal" text-decoration="none" x="549" y="200.5">+bt_refresh_banHangControl_Click(object sender, EventArgs e): void</text></g></g><g transform="translate(-254,-110) scale(1,1)"><g><path fill="none" stroke="none"/><text fill="#000000" stroke="none" font-family="Arial" font-size="13px" font-style="normal" font-weight="normal" text-decoration="none" x="549" y="215.5">+dgv_sanPham_banHangControl_CellClick(object sender, DataGridViewCellEventArgs e): void</text></g></g><g transform="translate(-254,-110) scale(1,1)"><g><path fill="none" stroke="none"/><text fill="#000000" stroke="none" font-family="Arial" font-size="13px" font-style="normal" font-weight="normal" text-decoration="none" x="549" y="230.5">+tb_nhapSoLuongSanPham_banHang_KeyDown(object sender, KeyEventArgs e): void</text></g></g><g transform="translate(-254,-110) scale(1,1)"><g><path fill="none" stroke="none"/><text fill="#000000" stroke="none" font-family="Arial" font-size="13px" font-style="normal" font-weight="normal" text-decoration="none" x="549" y="245.5">+bt_xoa_banHangControl_Click(object sender, EventArgs e): void</text></g></g><g transform="translate(-254,-110) scale(1,1)"><g><path fill="none" stroke="none"/><text fill="#000000" stroke="none" font-family="Arial" font-size="13px" font-style="normal" font-weight="normal" text-decoration="none" x="549" y="260.5">+bt_thanhToan_banHangControl_Click(object sender, EventArgs e): void</text></g></g><g transform="translate(-254,-110) scale(1,1)"><g><path fill="none" stroke="none"/><text fill="#000000" stroke="none" font-family="Arial" font-size="13px" font-style="normal" font-weight="normal" text-decoration="none" x="549" y="275.5">+btnHoanTac_Click(object sender, EventArgs e): void</text></g></g><g transform="translate(-254,-110) scale(1,1)"><path fill="none" stroke="#000000" d="M 543 196 L 434 195" stroke-miterlimit="10"/></g><g transform="translate(-254,-110) scale(1,1)"><path fill="none" stroke="#000000" d="M 444.2008650024119 190.88389101182102 L 434 195 L 444.12362939481824 199.30257223952972" stroke-miterlimit="10"/></g><g transform="translate(-254,-110) scale(1,1)"><path fill="none" stroke="#000000" d="M 821 281 L 821 351" stroke-miterlimit="10"/></g><g transform="translate(-254,-110) scale(1,1)"><path fill="none" stroke="#000000" d="M 816.790482243984 340.83732514237585 L 821 351 L 825.209517756016 340.83732514237585" stroke-miterlimit="10"/></g><g transform="translate(-254,-110) scale(1,1)"><path fill="none" stroke="#000000" d="M 414 404 L 679 403" stroke-miterlimit="10"/></g><g transform="translate(-254,-110) scale(1,1)"><path fill="#FFFFFF" stroke="none" d="M 668.8532823591235 407.2478372280874 L 679 403 L 668.8215126399938 398.8288616587083 L 657.0001566377006 403.08301827683886"/></g><g transform="translate(-254,-110) scale(1,1)"><path fill="none" stroke="#000000" d="M 668.8532823591235 407.2478372280874 L 679 403 L 668.8215126399938 398.8288616587083 L 657.0001566377006 403.08301827683886 L 668.8532823591235 407.2478372280874" stroke-miterlimit="10"/></g><g transform="translate(-254,-110) scale(1,1)"><path fill="none" stroke="#000000" d="M 347 238 L 343 375" stroke-miterlimit="10"/></g><g transform="translate(-254,-110) scale(1,1)"><path fill="none" stroke="#000000" d="M 339.0888693824315 364.7188007853015 L 343 375 L 347.5043187016541 364.9645073347678" stroke-miterlimit="10"/></g></g></svg>