<svg version="1.1" xmlns="http://www.w3.org/2000/svg" xmlns:xlink="http://www.w3.org/1999/xlink" width="872.87548828125" height="200"><defs/><g><text fill="#eeeeee" stroke="none" font-family="Arial" font-size="24px" font-style="normal" font-weight="normal" text-decoration="none" x="0" y="0"> </text><text fill="#eeeeee" stroke="none" font-family="Arial" font-size="24px" font-style="normal" font-weight="normal" text-decoration="none" x="0" y="30"> </text><text fill="#eeeeee" stroke="none" font-family="Arial" font-size="24px" font-style="normal" font-weight="normal" text-decoration="none" x="0" y="60"> </text><text fill="#eeeeee" stroke="none" font-family="Arial" font-size="24px" font-style="normal" font-weight="normal" text-decoration="none" x="0" y="90"> </text><text fill="#eeeeee" stroke="none" font-family="Arial" font-size="24px" font-style="normal" font-weight="normal" text-decoration="none" x="0" y="120"> </text><text fill="#eeeeee" stroke="none" font-family="Arial" font-size="24px" font-style="normal" font-weight="normal" text-decoration="none" x="0" y="150"> </text><text fill="#eeeeee" stroke="none" font-family="Arial" font-size="24px" font-style="normal" font-weight="normal" text-decoration="none" x="0" y="180"> </text><text fill="#eeeeee" stroke="none" font-family="Arial" font-size="24px" font-style="normal" font-weight="normal" text-decoration="none" x="200" y="0"> </text><text fill="#eeeeee" stroke="none" font-family="Arial" font-size="24px" font-style="normal" font-weight="normal" text-decoration="none" x="200" y="30"> </text><text fill="#eeeeee" stroke="none" font-family="Arial" font-size="24px" font-style="normal" font-weight="normal" text-decoration="none" x="200" y="60"> </text><text fill="#eeeeee" stroke="none" font-family="Arial" font-size="24px" font-style="normal" font-weight="normal" text-decoration="none" x="200" y="90"> </text><text fill="#eeeeee" stroke="none" font-family="Arial" font-size="24px" font-style="normal" font-weight="normal" text-decoration="none" x="200" y="120"> </text><text fill="#eeeeee" stroke="none" font-family="Arial" font-size="24px" font-style="normal" font-weight="normal" text-decoration="none" x="200" y="150"> </text><text fill="#eeeeee" stroke="none" font-family="Arial" font-size="24px" font-style="normal" font-weight="normal" text-decoration="none" x="200" y="180"> </text><text fill="#eeeeee" stroke="none" font-family="Arial" font-size="24px" font-style="normal" font-weight="normal" text-decoration="none" x="400" y="0"> </text><text fill="#eeeeee" stroke="none" font-family="Arial" font-size="24px" font-style="normal" font-weight="normal" text-decoration="none" x="400" y="30"> </text><text fill="#eeeeee" stroke="none" font-family="Arial" font-size="24px" font-style="normal" font-weight="normal" text-decoration="none" x="400" y="60"> </text><text fill="#eeeeee" stroke="none" font-family="Arial" font-size="24px" font-style="normal" font-weight="normal" text-decoration="none" x="400" y="90"> </text><text fill="#eeeeee" stroke="none" font-family="Arial" font-size="24px" font-style="normal" font-weight="normal" text-decoration="none" x="400" y="120"> </text><text fill="#eeeeee" stroke="none" font-family="Arial" font-size="24px" font-style="normal" font-weight="normal" text-decoration="none" x="400" y="150"> </text><text fill="#eeeeee" stroke="none" font-family="Arial" font-size="24px" font-style="normal" font-weight="normal" text-decoration="none" x="400" y="180"> </text><text fill="#eeeeee" stroke="none" font-family="Arial" font-size="24px" font-style="normal" font-weight="normal" text-decoration="none" x="600" y="0"> </text><text fill="#eeeeee" stroke="none" font-family="Arial" font-size="24px" font-style="normal" font-weight="normal" text-decoration="none" x="600" y="30"> </text><text fill="#eeeeee" stroke="none" font-family="Arial" font-size="24px" font-style="normal" font-weight="normal" text-decoration="none" x="600" y="60"> </text><text fill="#eeeeee" stroke="none" font-family="Arial" font-size="24px" font-style="normal" font-weight="normal" text-decoration="none" x="600" y="90"> </text><text fill="#eeeeee" stroke="none" font-family="Arial" font-size="24px" font-style="normal" font-weight="normal" text-decoration="none" x="600" y="120"> </text><text fill="#eeeeee" stroke="none" font-family="Arial" font-size="24px" font-style="normal" font-weight="normal" text-decoration="none" x="600" y="150"> </text><text fill="#eeeeee" stroke="none" font-family="Arial" font-size="24px" font-style="normal" font-weight="normal" text-decoration="none" x="600" y="180"> </text><text fill="#eeeeee" stroke="none" font-family="Arial" font-size="24px" font-style="normal" font-weight="normal" text-decoration="none" x="800" y="0"> </text><text fill="#eeeeee" stroke="none" font-family="Arial" font-size="24px" font-style="normal" font-weight="normal" text-decoration="none" x="800" y="30"> </text><text fill="#eeeeee" stroke="none" font-family="Arial" font-size="24px" font-style="normal" font-weight="normal" text-decoration="none" x="800" y="60"> </text><text fill="#eeeeee" stroke="none" font-family="Arial" font-size="24px" font-style="normal" font-weight="normal" text-decoration="none" x="800" y="90"> </text><text fill="#eeeeee" stroke="none" font-family="Arial" font-size="24px" font-style="normal" font-weight="normal" text-decoration="none" x="800" y="120"> </text><text fill="#eeeeee" stroke="none" font-family="Arial" font-size="24px" font-style="normal" font-weight="normal" text-decoration="none" x="800" y="150"> </text><text fill="#eeeeee" stroke="none" font-family="Arial" font-size="24px" font-style="normal" font-weight="normal" text-decoration="none" x="800" y="180"> </text><g transform="translate(-62,-158) scale(1,1)"><rect fill="#C0C0C0" stroke="none" x="79" y="175" width="283.16796875" height="70" opacity="0.2"/></g><g transform="translate(-62,-158) scale(1,1)"><rect fill="#ffffff" stroke="none" x="72" y="168" width="283.16796875" height="70"/></g><g transform="translate(-62,-158) scale(1,1)"><path fill="none" stroke="#000000" d="M 72 168 L 355.16796875 168 L 355.16796875 238 L 72 238 L 72 168 Z Z" stroke-miterlimit="10"/></g><g transform="translate(-62,-158) scale(1,1)"><path fill="none" stroke="#000000" d="M 72 193 L 355.16796875 193" stroke-miterlimit="10"/></g><g transform="translate(-62,-158) scale(1,1)"><path fill="none" stroke="#000000" d="M 72 216 L 355.16796875 216" stroke-miterlimit="10"/></g><g transform="translate(-62,-158) scale(1,1)"><g><path fill="none" stroke="none"/><text fill="#000000" stroke="none" font-family="Arial" font-size="13px" font-style="normal" font-weight="bold" text-decoration="none" x="182.515380859375" y="187.5">Dispatcher</text></g></g><g transform="translate(-62,-158) scale(1,1)"><g><path fill="none" stroke="none"/><text fill="#000000" stroke="none" font-family="Arial" font-size="13px" font-style="normal" font-weight="normal" text-decoration="none" x="77" y="210.5">+factory: FromFactory</text></g></g><g transform="translate(-62,-158) scale(1,1)"><g><path fill="none" stroke="none"/><text fill="#000000" stroke="none" font-family="Arial" font-size="13px" font-style="normal" font-weight="normal" text-decoration="none" x="77" y="233.5">+dispatch(String request, Form formFrom): void</text></g></g><g transform="translate(-62,-158) scale(1,1)"><rect fill="#C0C0C0" stroke="none" x="439" y="175" width="211.62353515625" height="57" opacity="0.2"/></g><g transform="translate(-62,-158) scale(1,1)"><rect fill="#ffffff" stroke="none" x="432" y="168" width="211.62353515625" height="57"/></g><g transform="translate(-62,-158) scale(1,1)"><path fill="none" stroke="#000000" d="M 432 168 L 643.62353515625 168 L 643.62353515625 225 L 432 225 L 432 168 Z Z" stroke-miterlimit="10"/></g><g transform="translate(-62,-158) scale(1,1)"><path fill="none" stroke="#000000" d="M 432 193 L 643.62353515625 193" stroke-miterlimit="10"/></g><g transform="translate(-62,-158) scale(1,1)"><path fill="none" stroke="#000000" d="M 432 203 L 643.62353515625 203" stroke-miterlimit="10"/></g><g transform="translate(-62,-158) scale(1,1)"><g><path fill="none" stroke="none"/><text fill="#000000" stroke="none" font-family="Arial" font-size="13px" font-style="normal" font-weight="bold" text-decoration="none" x="500.976318359375" y="187.5">FormFactory</text></g></g><g transform="translate(-62,-158) scale(1,1)"><g><path fill="none" stroke="none"/><text fill="#000000" stroke="none" font-family="Arial" font-size="13px" font-style="normal" font-weight="normal" text-decoration="none" x="437" y="220.5">+getForm(String nameForm): Form</text></g></g><g transform="translate(-62,-158) scale(1,1)"><rect fill="#C0C0C0" stroke="none" x="855" y="311" width="76.87548828125" height="44" opacity="0.2"/></g><g transform="translate(-62,-158) scale(1,1)"><rect fill="#ffffff" stroke="none" x="848" y="304" width="76.87548828125" height="44"/></g><g transform="translate(-62,-158) scale(1,1)"><path fill="none" stroke="#000000" d="M 848 304 L 924.87548828125 304 L 924.87548828125 348 L 848 348 L 848 304 Z Z" stroke-miterlimit="10"/></g><g transform="translate(-62,-158) scale(1,1)"><path fill="none" stroke="#000000" d="M 848 329 L 924.87548828125 329" stroke-miterlimit="10"/></g><g transform="translate(-62,-158) scale(1,1)"><path fill="none" stroke="#000000" d="M 848 339 L 924.87548828125 339" stroke-miterlimit="10"/></g><g transform="translate(-62,-158) scale(1,1)"><g><path fill="none" stroke="none"/><text fill="#000000" stroke="none" font-family="Arial" font-size="13px" font-style="normal" font-weight="bold" text-decoration="none" x="855.369140625" y="323.5">FormLogin</text></g></g><g transform="translate(-62,-158) scale(1,1)"><rect fill="#C0C0C0" stroke="none" x="679" y="311" width="77.6181640625" height="44" opacity="0.2"/></g><g transform="translate(-62,-158) scale(1,1)"><rect fill="#ffffff" stroke="none" x="672" y="304" width="77.6181640625" height="44"/></g><g transform="translate(-62,-158) scale(1,1)"><path fill="none" stroke="#000000" d="M 672 304 L 749.6181640625 304 L 749.6181640625 348 L 672 348 L 672 304 Z Z" stroke-miterlimit="10"/></g><g transform="translate(-62,-158) scale(1,1)"><path fill="none" stroke="#000000" d="M 672 329 L 749.6181640625 329" stroke-miterlimit="10"/></g><g transform="translate(-62,-158) scale(1,1)"><path fill="none" stroke="#000000" d="M 672 339 L 749.6181640625 339" stroke-miterlimit="10"/></g><g transform="translate(-62,-158) scale(1,1)"><g><path fill="none" stroke="none"/><text fill="#000000" stroke="none" font-family="Arial" font-size="13px" font-style="normal" font-weight="bold" text-decoration="none" x="678.305908203125" y="323.5">FormHome</text></g></g><g transform="translate(-62,-158) scale(1,1)"><rect fill="#C0C0C0" stroke="none" x="767" y="175" width="96" height="44" opacity="0.2"/></g><g transform="translate(-62,-158) scale(1,1)"><rect fill="#ffffff" stroke="none" x="760" y="168" width="96" height="44"/></g><g transform="translate(-62,-158) scale(1,1)"><path fill="none" stroke="#000000" d="M 760 168 L 856 168 L 856 212 L 760 212 L 760 168 Z Z" stroke-miterlimit="10"/></g><g transform="translate(-62,-158) scale(1,1)"><path fill="none" stroke="#000000" d="M 760 193 L 856 193" stroke-miterlimit="10"/></g><g transform="translate(-62,-158) scale(1,1)"><path fill="none" stroke="#000000" d="M 760 203 L 856 203" stroke-miterlimit="10"/></g><g transform="translate(-62,-158) scale(1,1)"><g><path fill="none" stroke="none"/><text fill="#000000" stroke="none" font-family="Arial" font-size="13px" font-style="normal" font-weight="bold" text-decoration="none" x="792.83544921875" y="187.5">Form</text></g></g><g transform="translate(-62,-158) scale(1,1)"><path fill="none" stroke="#000000" d="M 727 303 L 791 213" stroke-miterlimit="10"/></g><g transform="translate(-62,-158) scale(1,1)"><path fill="#FFFFFF" stroke="none" d="M 786.082114192192 234.44328331159574 L 791 213 L 772.3598385556642 224.68522063673154"/></g><g transform="translate(-62,-158) scale(1,1)"><path fill="none" stroke="#000000" d="M 786.082114192192 234.44328331159574 L 791 213 L 772.3598385556642 224.68522063673154 L 786.082114192192 234.44328331159574" stroke-miterlimit="10"/></g><g transform="translate(-62,-158) scale(1,1)"><path fill="none" stroke="#000000" d="M 873 303 L 821 213" stroke-miterlimit="10"/></g><g transform="translate(-62,-158) scale(1,1)"><path fill="#FFFFFF" stroke="none" d="M 838.4580659317802 226.38715555753402 L 821 213 L 823.8785683312321 234.81086528229514"/></g><g transform="translate(-62,-158) scale(1,1)"><path fill="none" stroke="#000000" d="M 838.4580659317802 226.38715555753402 L 821 213 L 823.8785683312321 234.81086528229514 L 838.4580659317802 226.38715555753402" stroke-miterlimit="10"/></g><g transform="translate(-62,-158) scale(1,1)"><path fill="none" stroke="#000000" d="M 356 200 L 431 198" stroke-miterlimit="10"/></g><g transform="translate(-62,-158) scale(1,1)"><path fill="none" stroke="#000000" d="M 420.9531505275143 202.47893019338477 L 431 198 L 420.72872269624133 194.06288652064842" stroke-miterlimit="10"/></g><g transform="translate(-62,-158) scale(1,1)"><path fill="none" stroke="#000000" d="M 645 194 L 759 191" stroke-miterlimit="10"/></g><g transform="translate(-62,-158) scale(1,1)"><path fill="none" stroke="#000000" d="M 748.9515806928197 195.4754071800324 L 759 191 L 748.7301038021151 187.05928533325883" stroke-miterlimit="10"/></g></g></svg>