<svg version="1.1" xmlns="http://www.w3.org/2000/svg" xmlns:xlink="http://www.w3.org/1999/xlink" width="225" height="126"><defs/><g><text fill="#eeeeee" stroke="none" font-family="Arial" font-size="24px" font-style="normal" font-weight="normal" text-decoration="none" x="0" y="0"> </text><text fill="#eeeeee" stroke="none" font-family="Arial" font-size="24px" font-style="normal" font-weight="normal" text-decoration="none" x="0" y="30"> </text><text fill="#eeeeee" stroke="none" font-family="Arial" font-size="24px" font-style="normal" font-weight="normal" text-decoration="none" x="0" y="60"> </text><text fill="#eeeeee" stroke="none" font-family="Arial" font-size="24px" font-style="normal" font-weight="normal" text-decoration="none" x="0" y="90"> </text><text fill="#eeeeee" stroke="none" font-family="Arial" font-size="24px" font-style="normal" font-weight="normal" text-decoration="none" x="0" y="120"> </text><text fill="#eeeeee" stroke="none" font-family="Arial" font-size="24px" font-style="normal" font-weight="normal" text-decoration="none" x="200" y="0"> </text><text fill="#eeeeee" stroke="none" font-family="Arial" font-size="24px" font-style="normal" font-weight="normal" text-decoration="none" x="200" y="30"> </text><text fill="#eeeeee" stroke="none" font-family="Arial" font-size="24px" font-style="normal" font-weight="normal" text-decoration="none" x="200" y="60"> </text><text fill="#eeeeee" stroke="none" font-family="Arial" font-size="24px" font-style="normal" font-weight="normal" text-decoration="none" x="200" y="90"> </text><text fill="#eeeeee" stroke="none" font-family="Arial" font-size="24px" font-style="normal" font-weight="normal" text-decoration="none" x="200" y="120"> </text><g transform="translate(-358,-145) scale(1,1)"><rect fill="#C0C0C0" stroke="none" x="375" y="183" width="174.83251953125" height="85" opacity="0.2"/></g><g transform="translate(-358,-145) scale(1,1)"><rect fill="#ffffff" stroke="none" x="368" y="176" width="174.83251953125" height="85"/></g><g transform="translate(-358,-145) scale(1,1)"><path fill="none" stroke="#000000" d="M 368 176 L 542.83251953125 176 L 542.83251953125 261 L 368 261 L 368 176 Z Z" stroke-miterlimit="10"/></g><g transform="translate(-358,-145) scale(1,1)"><path fill="none" stroke="#000000" d="M 368 201 L 542.83251953125 201" stroke-miterlimit="10"/></g><g transform="translate(-358,-145) scale(1,1)"><path fill="none" stroke="#000000" d="M 368 224 L 542.83251953125 224" stroke-miterlimit="10"/></g><g transform="translate(-358,-145) scale(1,1)"><g><path fill="none" stroke="none"/><text fill="#000000" stroke="none" font-family="Arial" font-size="13px" font-style="normal" font-weight="bold" text-decoration="none" x="417.844482421875" y="195.5">AccountDAO</text></g></g><g transform="translate(-358,-145) scale(1,1)"><g><path fill="none" stroke="none"/><text fill="#000000" stroke="none" font-family="Arial" font-size="13px" font-style="normal" font-weight="normal" text-decoration="none" x="373" y="218.5">+instance: AccountDao</text></g></g><g transform="translate(-358,-145) scale(1,1)"><g><path fill="none" stroke="none"/><text fill="#000000" stroke="none" font-family="Arial" font-size="13px" font-style="normal" font-weight="normal" text-decoration="none" x="373" y="241.5">-AccountDAO()</text></g></g><g transform="translate(-358,-145) scale(1,1)"><g><path fill="none" stroke="none"/><text fill="#000000" stroke="none" font-family="Arial" font-size="13px" font-style="normal" font-weight="normal" text-decoration="none" x="373" y="256.5">+getInstance(): AccountDAO</text></g></g><g transform="translate(-358,-145) scale(1,1)"><path fill="none" stroke="#000000" d="M 455 176 L 455 155 L 572 155 L 572 218 L 543 218" stroke-miterlimit="10"/></g><g transform="translate(-358,-145) scale(1,1)"><path fill="none" stroke="#000000" d="M 553.1626748576241 213.790482243984 L 543 218 L 553.1626748576241 222.209517756016" stroke-miterlimit="10"/></g></g></svg>