<svg version="1.1" xmlns="http://www.w3.org/2000/svg" xmlns:xlink="http://www.w3.org/1999/xlink" width="814.841796875" height="492"><defs/><g><text fill="#eeeeee" stroke="none" font-family="Arial" font-size="24px" font-style="normal" font-weight="normal" text-decoration="none" x="0" y="0">UNREGISTERED</text><text fill="#eeeeee" stroke="none" font-family="Arial" font-size="24px" font-style="normal" font-weight="normal" text-decoration="none" x="0" y="30">UNREGISTERED</text><text fill="#eeeeee" stroke="none" font-family="Arial" font-size="24px" font-style="normal" font-weight="normal" text-decoration="none" x="0" y="60">UNREGISTERED</text><text fill="#eeeeee" stroke="none" font-family="Arial" font-size="24px" font-style="normal" font-weight="normal" text-decoration="none" x="0" y="90">UNREGISTERED</text><text fill="#eeeeee" stroke="none" font-family="Arial" font-size="24px" font-style="normal" font-weight="normal" text-decoration="none" x="0" y="120">UNREGISTERED</text><text fill="#eeeeee" stroke="none" font-family="Arial" font-size="24px" font-style="normal" font-weight="normal" text-decoration="none" x="0" y="150">UNREGISTERED</text><text fill="#eeeeee" stroke="none" font-family="Arial" font-size="24px" font-style="normal" font-weight="normal" text-decoration="none" x="0" y="180">UNREGISTERED</text><text fill="#eeeeee" stroke="none" font-family="Arial" font-size="24px" font-style="normal" font-weight="normal" text-decoration="none" x="0" y="210">UNREGISTERED</text><text fill="#eeeeee" stroke="none" font-family="Arial" font-size="24px" font-style="normal" font-weight="normal" text-decoration="none" x="0" y="240">UNREGISTERED</text><text fill="#eeeeee" stroke="none" font-family="Arial" font-size="24px" font-style="normal" font-weight="normal" text-decoration="none" x="0" y="270">UNREGISTERED</text><text fill="#eeeeee" stroke="none" font-family="Arial" font-size="24px" font-style="normal" font-weight="normal" text-decoration="none" x="0" y="300">UNREGISTERED</text><text fill="#eeeeee" stroke="none" font-family="Arial" font-size="24px" font-style="normal" font-weight="normal" text-decoration="none" x="0" y="330">UNREGISTERED</text><text fill="#eeeeee" stroke="none" font-family="Arial" font-size="24px" font-style="normal" font-weight="normal" text-decoration="none" x="0" y="360">UNREGISTERED</text><text fill="#eeeeee" stroke="none" font-family="Arial" font-size="24px" font-style="normal" font-weight="normal" text-decoration="none" x="0" y="390">UNREGISTERED</text><text fill="#eeeeee" stroke="none" font-family="Arial" font-size="24px" font-style="normal" font-weight="normal" text-decoration="none" x="0" y="420">UNREGISTERED</text><text fill="#eeeeee" stroke="none" font-family="Arial" font-size="24px" font-style="normal" font-weight="normal" text-decoration="none" x="0" y="450">UNREGISTERED</text><text fill="#eeeeee" stroke="none" font-family="Arial" font-size="24px" font-style="normal" font-weight="normal" text-decoration="none" x="0" y="480">UNREGISTERED</text><text fill="#eeeeee" stroke="none" font-family="Arial" font-size="24px" font-style="normal" font-weight="normal" text-decoration="none" x="200" y="0">UNREGISTERED</text><text fill="#eeeeee" stroke="none" font-family="Arial" font-size="24px" font-style="normal" font-weight="normal" text-decoration="none" x="200" y="30">UNREGISTERED</text><text fill="#eeeeee" stroke="none" font-family="Arial" font-size="24px" font-style="normal" font-weight="normal" text-decoration="none" x="200" y="60">UNREGISTERED</text><text fill="#eeeeee" stroke="none" font-family="Arial" font-size="24px" font-style="normal" font-weight="normal" text-decoration="none" x="200" y="90">UNREGISTERED</text><text fill="#eeeeee" stroke="none" font-family="Arial" font-size="24px" font-style="normal" font-weight="normal" text-decoration="none" x="200" y="120">UNREGISTERED</text><text fill="#eeeeee" stroke="none" font-family="Arial" font-size="24px" font-style="normal" font-weight="normal" text-decoration="none" x="200" y="150">UNREGISTERED</text><text fill="#eeeeee" stroke="none" font-family="Arial" font-size="24px" font-style="normal" font-weight="normal" text-decoration="none" x="200" y="180">UNREGISTERED</text><text fill="#eeeeee" stroke="none" font-family="Arial" font-size="24px" font-style="normal" font-weight="normal" text-decoration="none" x="200" y="210">UNREGISTERED</text><text fill="#eeeeee" stroke="none" font-family="Arial" font-size="24px" font-style="normal" font-weight="normal" text-decoration="none" x="200" y="240">UNREGISTERED</text><text fill="#eeeeee" stroke="none" font-family="Arial" font-size="24px" font-style="normal" font-weight="normal" text-decoration="none" x="200" y="270">UNREGISTERED</text><text fill="#eeeeee" stroke="none" font-family="Arial" font-size="24px" font-style="normal" font-weight="normal" text-decoration="none" x="200" y="300">UNREGISTERED</text><text fill="#eeeeee" stroke="none" font-family="Arial" font-size="24px" font-style="normal" font-weight="normal" text-decoration="none" x="200" y="330">UNREGISTERED</text><text fill="#eeeeee" stroke="none" font-family="Arial" font-size="24px" font-style="normal" font-weight="normal" text-decoration="none" x="200" y="360">UNREGISTERED</text><text fill="#eeeeee" stroke="none" font-family="Arial" font-size="24px" font-style="normal" font-weight="normal" text-decoration="none" x="200" y="390">UNREGISTERED</text><text fill="#eeeeee" stroke="none" font-family="Arial" font-size="24px" font-style="normal" font-weight="normal" text-decoration="none" x="200" y="420">UNREGISTERED</text><text fill="#eeeeee" stroke="none" font-family="Arial" font-size="24px" font-style="normal" font-weight="normal" text-decoration="none" x="200" y="450">UNREGISTERED</text><text fill="#eeeeee" stroke="none" font-family="Arial" font-size="24px" font-style="normal" font-weight="normal" text-decoration="none" x="200" y="480">UNREGISTERED</text><text fill="#eeeeee" stroke="none" font-family="Arial" font-size="24px" font-style="normal" font-weight="normal" text-decoration="none" x="400" y="0">UNREGISTERED</text><text fill="#eeeeee" stroke="none" font-family="Arial" font-size="24px" font-style="normal" font-weight="normal" text-decoration="none" x="400" y="30">UNREGISTERED</text><text fill="#eeeeee" stroke="none" font-family="Arial" font-size="24px" font-style="normal" font-weight="normal" text-decoration="none" x="400" y="60">UNREGISTERED</text><text fill="#eeeeee" stroke="none" font-family="Arial" font-size="24px" font-style="normal" font-weight="normal" text-decoration="none" x="400" y="90">UNREGISTERED</text><text fill="#eeeeee" stroke="none" font-family="Arial" font-size="24px" font-style="normal" font-weight="normal" text-decoration="none" x="400" y="120">UNREGISTERED</text><text fill="#eeeeee" stroke="none" font-family="Arial" font-size="24px" font-style="normal" font-weight="normal" text-decoration="none" x="400" y="150">UNREGISTERED</text><text fill="#eeeeee" stroke="none" font-family="Arial" font-size="24px" font-style="normal" font-weight="normal" text-decoration="none" x="400" y="180">UNREGISTERED</text><text fill="#eeeeee" stroke="none" font-family="Arial" font-size="24px" font-style="normal" font-weight="normal" text-decoration="none" x="400" y="210">UNREGISTERED</text><text fill="#eeeeee" stroke="none" font-family="Arial" font-size="24px" font-style="normal" font-weight="normal" text-decoration="none" x="400" y="240">UNREGISTERED</text><text fill="#eeeeee" stroke="none" font-family="Arial" font-size="24px" font-style="normal" font-weight="normal" text-decoration="none" x="400" y="270">UNREGISTERED</text><text fill="#eeeeee" stroke="none" font-family="Arial" font-size="24px" font-style="normal" font-weight="normal" text-decoration="none" x="400" y="300">UNREGISTERED</text><text fill="#eeeeee" stroke="none" font-family="Arial" font-size="24px" font-style="normal" font-weight="normal" text-decoration="none" x="400" y="330">UNREGISTERED</text><text fill="#eeeeee" stroke="none" font-family="Arial" font-size="24px" font-style="normal" font-weight="normal" text-decoration="none" x="400" y="360">UNREGISTERED</text><text fill="#eeeeee" stroke="none" font-family="Arial" font-size="24px" font-style="normal" font-weight="normal" text-decoration="none" x="400" y="390">UNREGISTERED</text><text fill="#eeeeee" stroke="none" font-family="Arial" font-size="24px" font-style="normal" font-weight="normal" text-decoration="none" x="400" y="420">UNREGISTERED</text><text fill="#eeeeee" stroke="none" font-family="Arial" font-size="24px" font-style="normal" font-weight="normal" text-decoration="none" x="400" y="450">UNREGISTERED</text><text fill="#eeeeee" stroke="none" font-family="Arial" font-size="24px" font-style="normal" font-weight="normal" text-decoration="none" x="400" y="480">UNREGISTERED</text><text fill="#eeeeee" stroke="none" font-family="Arial" font-size="24px" font-style="normal" font-weight="normal" text-decoration="none" x="600" y="0">UNREGISTERED</text><text fill="#eeeeee" stroke="none" font-family="Arial" font-size="24px" font-style="normal" font-weight="normal" text-decoration="none" x="600" y="30">UNREGISTERED</text><text fill="#eeeeee" stroke="none" font-family="Arial" font-size="24px" font-style="normal" font-weight="normal" text-decoration="none" x="600" y="60">UNREGISTERED</text><text fill="#eeeeee" stroke="none" font-family="Arial" font-size="24px" font-style="normal" font-weight="normal" text-decoration="none" x="600" y="90">UNREGISTERED</text><text fill="#eeeeee" stroke="none" font-family="Arial" font-size="24px" font-style="normal" font-weight="normal" text-decoration="none" x="600" y="120">UNREGISTERED</text><text fill="#eeeeee" stroke="none" font-family="Arial" font-size="24px" font-style="normal" font-weight="normal" text-decoration="none" x="600" y="150">UNREGISTERED</text><text fill="#eeeeee" stroke="none" font-family="Arial" font-size="24px" font-style="normal" font-weight="normal" text-decoration="none" x="600" y="180">UNREGISTERED</text><text fill="#eeeeee" stroke="none" font-family="Arial" font-size="24px" font-style="normal" font-weight="normal" text-decoration="none" x="600" y="210">UNREGISTERED</text><text fill="#eeeeee" stroke="none" font-family="Arial" font-size="24px" font-style="normal" font-weight="normal" text-decoration="none" x="600" y="240">UNREGISTERED</text><text fill="#eeeeee" stroke="none" font-family="Arial" font-size="24px" font-style="normal" font-weight="normal" text-decoration="none" x="600" y="270">UNREGISTERED</text><text fill="#eeeeee" stroke="none" font-family="Arial" font-size="24px" font-style="normal" font-weight="normal" text-decoration="none" x="600" y="300">UNREGISTERED</text><text fill="#eeeeee" stroke="none" font-family="Arial" font-size="24px" font-style="normal" font-weight="normal" text-decoration="none" x="600" y="330">UNREGISTERED</text><text fill="#eeeeee" stroke="none" font-family="Arial" font-size="24px" font-style="normal" font-weight="normal" text-decoration="none" x="600" y="360">UNREGISTERED</text><text fill="#eeeeee" stroke="none" font-family="Arial" font-size="24px" font-style="normal" font-weight="normal" text-decoration="none" x="600" y="390">UNREGISTERED</text><text fill="#eeeeee" stroke="none" font-family="Arial" font-size="24px" font-style="normal" font-weight="normal" text-decoration="none" x="600" y="420">UNREGISTERED</text><text fill="#eeeeee" stroke="none" font-family="Arial" font-size="24px" font-style="normal" font-weight="normal" text-decoration="none" x="600" y="450">UNREGISTERED</text><text fill="#eeeeee" stroke="none" font-family="Arial" font-size="24px" font-style="normal" font-weight="normal" text-decoration="none" x="600" y="480">UNREGISTERED</text><text fill="#eeeeee" stroke="none" font-family="Arial" font-size="24px" font-style="normal" font-weight="normal" text-decoration="none" x="800" y="0">UNREGISTERED</text><text fill="#eeeeee" stroke="none" font-family="Arial" font-size="24px" font-style="normal" font-weight="normal" text-decoration="none" x="800" y="30">UNREGISTERED</text><text fill="#eeeeee" stroke="none" font-family="Arial" font-size="24px" font-style="normal" font-weight="normal" text-decoration="none" x="800" y="60">UNREGISTERED</text><text fill="#eeeeee" stroke="none" font-family="Arial" font-size="24px" font-style="normal" font-weight="normal" text-decoration="none" x="800" y="90">UNREGISTERED</text><text fill="#eeeeee" stroke="none" font-family="Arial" font-size="24px" font-style="normal" font-weight="normal" text-decoration="none" x="800" y="120">UNREGISTERED</text><text fill="#eeeeee" stroke="none" font-family="Arial" font-size="24px" font-style="normal" font-weight="normal" text-decoration="none" x="800" y="150">UNREGISTERED</text><text fill="#eeeeee" stroke="none" font-family="Arial" font-size="24px" font-style="normal" font-weight="normal" text-decoration="none" x="800" y="180">UNREGISTERED</text><text fill="#eeeeee" stroke="none" font-family="Arial" font-size="24px" font-style="normal" font-weight="normal" text-decoration="none" x="800" y="210">UNREGISTERED</text><text fill="#eeeeee" stroke="none" font-family="Arial" font-size="24px" font-style="normal" font-weight="normal" text-decoration="none" x="800" y="240">UNREGISTERED</text><text fill="#eeeeee" stroke="none" font-family="Arial" font-size="24px" font-style="normal" font-weight="normal" text-decoration="none" x="800" y="270">UNREGISTERED</text><text fill="#eeeeee" stroke="none" font-family="Arial" font-size="24px" font-style="normal" font-weight="normal" text-decoration="none" x="800" y="300">UNREGISTERED</text><text fill="#eeeeee" stroke="none" font-family="Arial" font-size="24px" font-style="normal" font-weight="normal" text-decoration="none" x="800" y="330">UNREGISTERED</text><text fill="#eeeeee" stroke="none" font-family="Arial" font-size="24px" font-style="normal" font-weight="normal" text-decoration="none" x="800" y="360">UNREGISTERED</text><text fill="#eeeeee" stroke="none" font-family="Arial" font-size="24px" font-style="normal" font-weight="normal" text-decoration="none" x="800" y="390">UNREGISTERED</text><text fill="#eeeeee" stroke="none" font-family="Arial" font-size="24px" font-style="normal" font-weight="normal" text-decoration="none" x="800" y="420">UNREGISTERED</text><text fill="#eeeeee" stroke="none" font-family="Arial" font-size="24px" font-style="normal" font-weight="normal" text-decoration="none" x="800" y="450">UNREGISTERED</text><text fill="#eeeeee" stroke="none" font-family="Arial" font-size="24px" font-style="normal" font-weight="normal" text-decoration="none" x="800" y="480">UNREGISTERED</text><g transform="translate(-94,-62) scale(1,1)"><rect fill="#C0C0C0" stroke="none" x="479" y="247" width="123.50537109375" height="102" opacity="0.2"/></g><g transform="translate(-94,-62) scale(1,1)"><rect fill="#ffffff" stroke="none" x="472" y="240" width="123.50537109375" height="102"/></g><g transform="translate(-94,-62) scale(1,1)"><path fill="none" stroke="#000000" d="M 472 240 L 595.50537109375 240 L 595.50537109375 342 L 472 342 L 472 240 Z Z" stroke-miterlimit="10"/></g><g transform="translate(-94,-62) scale(1,1)"><path fill="none" stroke="#000000" d="M 472 265 L 595.50537109375 265" stroke-miterlimit="10"/></g><g transform="translate(-94,-62) scale(1,1)"><path fill="none" stroke="#000000" d="M 472 275 L 595.50537109375 275" stroke-miterlimit="10"/></g><g transform="translate(-94,-62) scale(1,1)"><g><path fill="none" stroke="none"/><text fill="#000000" stroke="none" font-family="Arial" font-size="13px" font-style="normal" font-weight="bold" text-decoration="none" x="492.2041015625" y="259.5">ControlScreen</text></g></g><g transform="translate(-94,-62) scale(1,1)"><g><path fill="none" stroke="none"/><text fill="#000000" stroke="none" font-family="Arial" font-size="13px" font-style="normal" font-weight="normal" text-decoration="none" x="477" y="292.5">+screenClick(): void</text></g></g><g transform="translate(-94,-62) scale(1,1)"><g><path fill="none" stroke="none"/><text fill="#000000" stroke="none" font-family="Arial" font-size="13px" font-style="normal" font-weight="normal" text-decoration="none" x="477" y="307.5">+firstActive(): void</text></g></g><g transform="translate(-94,-62) scale(1,1)"><g><path fill="none" stroke="none"/><text fill="#000000" stroke="none" font-family="Arial" font-size="13px" font-style="italic" font-weight="normal" text-decoration="none" x="477" y="322.5">+loadData(): void</text></g></g><g transform="translate(-94,-62) scale(1,1)"><g><path fill="none" stroke="none"/><text fill="#000000" stroke="none" font-family="Arial" font-size="13px" font-style="italic" font-weight="normal" text-decoration="none" x="477" y="337.5">+clear(): void</text></g></g><g transform="translate(-94,-62) scale(1,1)"><rect fill="#C0C0C0" stroke="none" x="223" y="375" width="112.27001953125" height="72" opacity="0.2"/></g><g transform="translate(-94,-62) scale(1,1)"><rect fill="#ffffff" stroke="none" x="216" y="368" width="112.27001953125" height="72"/></g><g transform="translate(-94,-62) scale(1,1)"><path fill="none" stroke="#000000" d="M 216 368 L 328.27001953125 368 L 328.27001953125 440 L 216 440 L 216 368 Z Z" stroke-miterlimit="10"/></g><g transform="translate(-94,-62) scale(1,1)"><path fill="none" stroke="#000000" d="M 216 393 L 328.27001953125 393" stroke-miterlimit="10"/></g><g transform="translate(-94,-62) scale(1,1)"><path fill="none" stroke="#000000" d="M 216 403 L 328.27001953125 403" stroke-miterlimit="10"/></g><g transform="translate(-94,-62) scale(1,1)"><g><path fill="none" stroke="none"/><text fill="#000000" stroke="none" font-family="Arial" font-size="13px" font-style="normal" font-weight="bold" text-decoration="none" x="224.076904296875" y="387.5">BanHangControl</text></g></g><g transform="translate(-94,-62) scale(1,1)"><g><path fill="none" stroke="none"/><text fill="#000000" stroke="none" font-family="Arial" font-size="13px" font-style="normal" font-weight="normal" text-decoration="none" x="221" y="420.5">+loadData(): void</text></g></g><g transform="translate(-94,-62) scale(1,1)"><g><path fill="none" stroke="none"/><text fill="#000000" stroke="none" font-family="Arial" font-size="13px" font-style="normal" font-weight="normal" text-decoration="none" x="221" y="435.5">+clear(): void</text></g></g><g transform="translate(-94,-62) scale(1,1)"><rect fill="#C0C0C0" stroke="none" x="311" y="479" width="176.54638671875" height="72" opacity="0.2"/></g><g transform="translate(-94,-62) scale(1,1)"><rect fill="#ffffff" stroke="none" x="304" y="472" width="176.54638671875" height="72"/></g><g transform="translate(-94,-62) scale(1,1)"><path fill="none" stroke="#000000" d="M 304 472 L 480.54638671875 472 L 480.54638671875 544 L 304 544 L 304 472 Z Z" stroke-miterlimit="10"/></g><g transform="translate(-94,-62) scale(1,1)"><path fill="none" stroke="#000000" d="M 304 497 L 480.54638671875 497" stroke-miterlimit="10"/></g><g transform="translate(-94,-62) scale(1,1)"><path fill="none" stroke="#000000" d="M 304 507 L 480.54638671875 507" stroke-miterlimit="10"/></g><g transform="translate(-94,-62) scale(1,1)"><g><path fill="none" stroke="none"/><text fill="#000000" stroke="none" font-family="Arial" font-size="13px" font-style="normal" font-weight="bold" text-decoration="none" x="314.2255859375" y="491.5">LichSuXuatHoaDonControl</text></g></g><g transform="translate(-94,-62) scale(1,1)"><g><path fill="none" stroke="none"/><text fill="#000000" stroke="none" font-family="Arial" font-size="13px" font-style="normal" font-weight="normal" text-decoration="none" x="309" y="524.5">+loadData(): void</text></g></g><g transform="translate(-94,-62) scale(1,1)"><g><path fill="none" stroke="none"/><text fill="#000000" stroke="none" font-family="Arial" font-size="13px" font-style="normal" font-weight="normal" text-decoration="none" x="309" y="539.5">+clear(): void</text></g></g><g transform="translate(-94,-62) scale(1,1)"><rect fill="#C0C0C0" stroke="none" x="111" y="271" width="235.3193359375" height="72" opacity="0.2"/></g><g transform="translate(-94,-62) scale(1,1)"><rect fill="#ffffff" stroke="none" x="104" y="264" width="235.3193359375" height="72"/></g><g transform="translate(-94,-62) scale(1,1)"><path fill="none" stroke="#000000" d="M 104 264 L 339.3193359375 264 L 339.3193359375 336 L 104 336 L 104 264 Z Z" stroke-miterlimit="10"/></g><g transform="translate(-94,-62) scale(1,1)"><path fill="none" stroke="#000000" d="M 104 289 L 339.3193359375 289" stroke-miterlimit="10"/></g><g transform="translate(-94,-62) scale(1,1)"><path fill="none" stroke="#000000" d="M 104 299 L 339.3193359375 299" stroke-miterlimit="10"/></g><g transform="translate(-94,-62) scale(1,1)"><g><path fill="none" stroke="none"/><text fill="#000000" stroke="none" font-family="Arial" font-size="13px" font-style="normal" font-weight="bold" text-decoration="none" x="115.783935546875" y="283.5">QuanLyKhachHangVaSuKienControl</text></g></g><g transform="translate(-94,-62) scale(1,1)"><g><path fill="none" stroke="none"/><text fill="#000000" stroke="none" font-family="Arial" font-size="13px" font-style="normal" font-weight="normal" text-decoration="none" x="109" y="316.5">+loadData(): void</text></g></g><g transform="translate(-94,-62) scale(1,1)"><g><path fill="none" stroke="none"/><text fill="#000000" stroke="none" font-family="Arial" font-size="13px" font-style="normal" font-weight="normal" text-decoration="none" x="109" y="331.5">+clear(): void</text></g></g><g transform="translate(-94,-62) scale(1,1)"><rect fill="#C0C0C0" stroke="none" x="743" y="263" width="162.841796875" height="72" opacity="0.2"/></g><g transform="translate(-94,-62) scale(1,1)"><rect fill="#ffffff" stroke="none" x="736" y="256" width="162.841796875" height="72"/></g><g transform="translate(-94,-62) scale(1,1)"><path fill="none" stroke="#000000" d="M 736 256 L 898.841796875 256 L 898.841796875 328 L 736 328 L 736 256 Z Z" stroke-miterlimit="10"/></g><g transform="translate(-94,-62) scale(1,1)"><path fill="none" stroke="#000000" d="M 736 281 L 898.841796875 281" stroke-miterlimit="10"/></g><g transform="translate(-94,-62) scale(1,1)"><path fill="none" stroke="#000000" d="M 736 291 L 898.841796875 291" stroke-miterlimit="10"/></g><g transform="translate(-94,-62) scale(1,1)"><g><path fill="none" stroke="none"/><text fill="#000000" stroke="none" font-family="Arial" font-size="13px" font-style="normal" font-weight="bold" text-decoration="none" x="745.511474609375" y="275.5">QuanLyNhanVienControl</text></g></g><g transform="translate(-94,-62) scale(1,1)"><g><path fill="none" stroke="none"/><text fill="#000000" stroke="none" font-family="Arial" font-size="13px" font-style="normal" font-weight="normal" text-decoration="none" x="741" y="308.5">+loadData(): void</text></g></g><g transform="translate(-94,-62) scale(1,1)"><g><path fill="none" stroke="none"/><text fill="#000000" stroke="none" font-family="Arial" font-size="13px" font-style="normal" font-weight="normal" text-decoration="none" x="741" y="323.5">+clear(): void</text></g></g><g transform="translate(-94,-62) scale(1,1)"><rect fill="#C0C0C0" stroke="none" x="551" y="479" width="194.86572265625" height="72" opacity="0.2"/></g><g transform="translate(-94,-62) scale(1,1)"><rect fill="#ffffff" stroke="none" x="544" y="472" width="194.86572265625" height="72"/></g><g transform="translate(-94,-62) scale(1,1)"><path fill="none" stroke="#000000" d="M 544 472 L 738.86572265625 472 L 738.86572265625 544 L 544 544 L 544 472 Z Z" stroke-miterlimit="10"/></g><g transform="translate(-94,-62) scale(1,1)"><path fill="none" stroke="#000000" d="M 544 497 L 738.86572265625 497" stroke-miterlimit="10"/></g><g transform="translate(-94,-62) scale(1,1)"><path fill="none" stroke="#000000" d="M 544 507 L 738.86572265625 507" stroke-miterlimit="10"/></g><g transform="translate(-94,-62) scale(1,1)"><g><path fill="none" stroke="none"/><text fill="#000000" stroke="none" font-family="Arial" font-size="13px" font-style="normal" font-weight="bold" text-decoration="none" x="553.8701171875" y="491.5">QuanLyNhapSanPhamControl</text></g></g><g transform="translate(-94,-62) scale(1,1)"><g><path fill="none" stroke="none"/><text fill="#000000" stroke="none" font-family="Arial" font-size="13px" font-style="normal" font-weight="normal" text-decoration="none" x="549" y="524.5">+loadData(): void</text></g></g><g transform="translate(-94,-62) scale(1,1)"><g><path fill="none" stroke="none"/><text fill="#000000" stroke="none" font-family="Arial" font-size="13px" font-style="normal" font-weight="normal" text-decoration="none" x="549" y="539.5">+clear(): void</text></g></g><g transform="translate(-94,-62) scale(1,1)"><rect fill="#C0C0C0" stroke="none" x="743" y="375" width="162.36572265625" height="72" opacity="0.2"/></g><g transform="translate(-94,-62) scale(1,1)"><rect fill="#ffffff" stroke="none" x="736" y="368" width="162.36572265625" height="72"/></g><g transform="translate(-94,-62) scale(1,1)"><path fill="none" stroke="#000000" d="M 736 368 L 898.36572265625 368 L 898.36572265625 440 L 736 440 L 736 368 Z Z" stroke-miterlimit="10"/></g><g transform="translate(-94,-62) scale(1,1)"><path fill="none" stroke="#000000" d="M 736 393 L 898.36572265625 393" stroke-miterlimit="10"/></g><g transform="translate(-94,-62) scale(1,1)"><path fill="none" stroke="#000000" d="M 736 403 L 898.36572265625 403" stroke-miterlimit="10"/></g><g transform="translate(-94,-62) scale(1,1)"><g><path fill="none" stroke="none"/><text fill="#000000" stroke="none" font-family="Arial" font-size="13px" font-style="normal" font-weight="bold" text-decoration="none" x="745.1591796875" y="387.5">QuanLySanPhamControl</text></g></g><g transform="translate(-94,-62) scale(1,1)"><g><path fill="none" stroke="none"/><text fill="#000000" stroke="none" font-family="Arial" font-size="13px" font-style="normal" font-weight="normal" text-decoration="none" x="741" y="420.5">+loadData(): void</text></g></g><g transform="translate(-94,-62) scale(1,1)"><g><path fill="none" stroke="none"/><text fill="#000000" stroke="none" font-family="Arial" font-size="13px" font-style="normal" font-weight="normal" text-decoration="none" x="741" y="435.5">+clear(): void</text></g></g><g transform="translate(-94,-62) scale(1,1)"><path fill="none" stroke="#000000" d="M 340 297 L 471 293" stroke-miterlimit="10"/></g><g transform="translate(-94,-62) scale(1,1)"><path fill="#FFFFFF" stroke="none" d="M 450.9410688309513 302.0354457751328 L 471 293 L 450.4271687683717 285.2052187256512"/></g><g transform="translate(-94,-62) scale(1,1)"><path fill="none" stroke="#000000" d="M 450.9410688309513 302.0354457751328 L 471 293 L 450.4271687683717 285.2052187256512 L 450.9410688309513 302.0354457751328" stroke-miterlimit="10"/></g><g transform="translate(-94,-62) scale(1,1)"><path fill="none" stroke="#000000" d="M 329 379 L 471 318" stroke-miterlimit="10"/></g><g transform="translate(-94,-62) scale(1,1)"><path fill="#FFFFFF" stroke="none" d="M 455.6478590435632 333.7579112846118 L 471 318 L 449.00187109728677 318.28692295065684"/></g><g transform="translate(-94,-62) scale(1,1)"><path fill="none" stroke="#000000" d="M 455.6478590435632 333.7579112846118 L 471 318 L 449.00187109728677 318.28692295065684 L 455.6478590435632 333.7579112846118" stroke-miterlimit="10"/></g><g transform="translate(-94,-62) scale(1,1)"><path fill="none" stroke="#000000" d="M 416 471 L 499 343" stroke-miterlimit="10"/></g><g transform="translate(-94,-62) scale(1,1)"><path fill="#FFFFFF" stroke="none" d="M 495.00558586922074 364.63433973459394 L 499 343 L 480.87773434843365 355.4733110140836"/></g><g transform="translate(-94,-62) scale(1,1)"><path fill="none" stroke="#000000" d="M 495.00558586922074 364.63433973459394 L 499 343 L 480.87773434843365 355.4733110140836 L 495.00558586922074 364.63433973459394" stroke-miterlimit="10"/></g><g transform="translate(-94,-62) scale(1,1)"><path fill="none" stroke="#000000" d="M 623 471 L 559 343" stroke-miterlimit="10"/></g><g transform="translate(-94,-62) scale(1,1)"><path fill="#FFFFFF" stroke="none" d="M 575.6199870099056 357.41443830992284 L 559 343 L 560.5595584419949 364.9446525938781"/></g><g transform="translate(-94,-62) scale(1,1)"><path fill="none" stroke="#000000" d="M 575.6199870099056 357.41443830992284 L 559 343 L 560.5595584419949 364.9446525938781 L 575.6199870099056 357.41443830992284" stroke-miterlimit="10"/></g><g transform="translate(-94,-62) scale(1,1)"><path fill="none" stroke="#000000" d="M 735 371 L 597 316" stroke-miterlimit="10"/></g><g transform="translate(-94,-62) scale(1,1)"><path fill="#FFFFFF" stroke="none" d="M 618.9980122607533 315.70426942034004 L 597 316 L 612.7640567404853 331.3458305439217"/></g><g transform="translate(-94,-62) scale(1,1)"><path fill="none" stroke="#000000" d="M 618.9980122607533 315.70426942034004 L 597 316 L 612.7640567404853 331.3458305439217 L 618.9980122607533 315.70426942034004" stroke-miterlimit="10"/></g><g transform="translate(-94,-62) scale(1,1)"><path fill="none" stroke="#000000" d="M 735 292 L 597 291" stroke-miterlimit="10"/></g><g transform="translate(-94,-62) scale(1,1)"><path fill="#FFFFFF" stroke="none" d="M 617.3858219964637 282.72846679699 L 597 291 L 617.2638101924194 299.56609575510333"/></g><g transform="translate(-94,-62) scale(1,1)"><path fill="none" stroke="#000000" d="M 617.3858219964637 282.72846679699 L 597 291 L 617.2638101924194 299.56609575510333 L 617.3858219964637 282.72846679699" stroke-miterlimit="10"/></g><g transform="translate(-94,-62) scale(1,1)"><rect fill="#C0C0C0" stroke="none" x="479" y="79" width="120" height="68" opacity="0.2"/></g><g transform="translate(-94,-62) scale(1,1)"><rect fill="#ffffff" stroke="none" x="472" y="72" width="120" height="68"/></g><g transform="translate(-94,-62) scale(1,1)"><path fill="none" stroke="#000000" d="M 472 72 L 592 72 L 592 140 L 472 140 L 472 72 Z Z" stroke-miterlimit="10"/></g><g transform="translate(-94,-62) scale(1,1)"><path fill="none" stroke="#000000" d="M 472 97 L 592 97" stroke-miterlimit="10"/></g><g transform="translate(-94,-62) scale(1,1)"><path fill="none" stroke="#000000" d="M 472 107 L 592 107" stroke-miterlimit="10"/></g><g transform="translate(-94,-62) scale(1,1)"><g><path fill="none" stroke="none"/><text fill="#000000" stroke="none" font-family="Arial" font-size="13px" font-style="normal" font-weight="bold" text-decoration="none" x="497.32275390625" y="91.5">UserControl</text></g></g><g transform="translate(-94,-62) scale(1,1)"><path fill="none" stroke="#000000" d="M 533 239 L 532 141" stroke-miterlimit="10"/></g><g transform="translate(-94,-62) scale(1,1)"><path fill="#FFFFFF" stroke="none" d="M 540.6259879683392 161.2383875733732 L 532 141 L 523.7887934934325 161.41019568026"/></g><g transform="translate(-94,-62) scale(1,1)"><path fill="none" stroke="#000000" d="M 540.6259879683392 161.2383875733732 L 532 141 L 523.7887934934325 161.41019568026 L 540.6259879683392 161.2383875733732" stroke-miterlimit="10"/></g></g></svg>